<?xml version="1.0" encoding="UTF-8"?>
<svg id="Layer_1" xmlns="http://www.w3.org/2000/svg" version="1.1" viewBox="0 0 98 42">
  <!-- Generator: Adobe Illustrator 29.2.1, SVG Export Plug-In . SVG Version: 2.1.0 Build 116)  -->
  <defs>
    <style>
      .st0 {
        isolation: isolate;
      }

      .st1 {
        fill: #fff;
      }
    </style>
  </defs>
  <g class="st0">
    <g class="st0">
      <path class="st1" d="M17.81,26.87h.42l-.1-.45-.03-.5c0-.12,0-.2,0-.26,0-.06.03-.15.07-.27.04-.13.11-.25.2-.37.09-.12.2-.21.32-.27s.24-.09.36-.09h1.59c.14,0,.27.03.38.09.11.06.22.15.31.27.1.12.17.26.22.41.02.07.03.15.05.23.01.08.02.17.02.26,0,.1-.02.21-.06.33-.04.12-.12.26-.22.44h-.59l.1-.17.09-.21.06-.33v-.15l-.06-.12-.09-.07-.12-.04h-1.68c-.06,0-.11.02-.15.05-.04.03-.09.08-.13.15l-.09.2-.04.22c0,.1.01.19.04.26l.08.2c.04.06.08.11.12.13s.1.04.18.06h3.11v.98h-.77l.12.2.07.18.04.14v.21c0,.2-.02.38-.07.54-.05.16-.12.31-.21.44-.09.13-.2.23-.32.29-.12.07-.25.1-.38.1h-1.59c-.13,0-.25-.03-.37-.09-.12-.06-.23-.15-.33-.27s-.18-.26-.23-.42c-.05-.16-.07-.32-.07-.48,0-.18.02-.33.05-.45.02-.14.06-.27.11-.39h-.42v2.87h-.53v-6.81h.53v2.97ZM18.99,27.85s-.08.03-.1.05c-.04.03-.07.08-.11.14-.04.06-.07.13-.08.21l-.03.21.03.22.07.17s.05.08.1.11l.13.05h1.67c.05,0,.1-.01.14-.03.04-.02.08-.06.12-.13l.08-.19.02-.2c0-.11,0-.19-.03-.26s-.04-.13-.07-.18c-.03-.05-.06-.09-.1-.12-.04-.03-.09-.05-.14-.06h-1.69Z"/>
      <path class="st1" d="M17.47,26.57l-1.74,1.79c-.06.07-.11.18-.16.34-.05.16-.07.32-.07.49v.41h-.56v-1.06c.02-.06.03-.11.04-.16,0-.05.03-.12.06-.2.02-.08.05-.16.1-.24l.13-.22,2.19-2.31v1.17Z"/>
      <path class="st1" d="M17.47,26.57l-1.74,1.79c-.06.07-.11.18-.16.34-.05.16-.07.32-.07.49v.41h-.56v-1.06c.02-.06.03-.11.04-.16,0-.05.03-.12.06-.2.02-.08.05-.16.1-.24l.13-.22,2.19-2.31v1.17Z"/>
      <path class="st1" d="M17.47,26.57l-1.74,1.79c-.06.07-.11.18-.16.34-.05.16-.07.32-.07.49v.41h-.56v-1.06c.02-.06.03-.11.04-.16,0-.05.03-.12.06-.2.02-.08.05-.16.1-.24l.13-.22,2.19-2.31v1.17Z"/>
      <path class="st1" d="M17.47,26.57l-1.74,1.79c-.06.07-.11.18-.16.34-.05.16-.07.32-.07.49v.41h-.56v-1.06c.02-.06.03-.11.04-.16,0-.05.03-.12.06-.2.02-.08.05-.16.1-.24l.13-.22,2.19-2.31v1.17Z"/>
      <path class="st1" d="M17.81,20.73h1.5v1c-.07,0-.12.01-.17.03-.05.02-.09.05-.13.1l-.07.15s-.03.11-.03.18l.03.19.07.16.12.1.14.03h2.08s.07-.02.12-.06l.09-.17.04-.11.02-.12v-.31l-.03-.3-.08-.26c-.04-.08-.08-.14-.13-.17-.05-.03-.11-.06-.18-.07h-1.06v-.98h.97c.14,0,.28.04.4.13.12.08.24.22.35.4.09.16.17.35.24.58.05.22.07.44.07.66,0,.19,0,.31-.01.39,0,.07-.03.17-.06.28-.06.21-.13.4-.24.57s-.22.29-.34.38c-.13.08-.26.13-.4.13h-1.68c-.15,0-.29-.03-.42-.08s-.25-.14-.35-.24c-.1-.11-.19-.23-.25-.38-.06-.14-.08-.29-.08-.46s.01-.29.03-.41l.08-.33h-.65v2.71h-.53v-4.89h.53v1.18Z"/>
      <path class="st1" d="M17.81,14.86h4.38v.95h-3.03s-.08.02-.09.04l-.09.08-.07.14v.16c0,.06.01.12.03.17s.05.1.1.14l.15.1.17.03h.8v.83h-.81c-.06,0-.12.02-.19.05-.06.02-.11.05-.17.1-.06.05-.1.1-.13.16-.03.06-.05.14-.06.23,0,.08.01.16.03.22l.08.17c.04.06.08.1.13.12l.17.04h2.21l.09-.09.05-.11.03-.15v-.14s-.02-.08-.05-.12l-.06-.08s-.04-.03-.07-.03h-.43v-.62h.32c.12,0,.24.03.34.09.05.03.1.06.14.1.04.03.1.09.16.15.06.09.12.22.19.37.04.15.07.3.07.45,0,.16-.02.3-.07.44-.04.14-.11.27-.19.38-.08.12-.18.2-.28.26-.1.06-.22.08-.35.08h-2.05c-.14,0-.27-.03-.39-.1-.12-.07-.23-.16-.33-.3s-.19-.29-.24-.46-.08-.36-.08-.56c0-.11.01-.21.04-.3.02-.11.05-.21.1-.28.04-.09.09-.17.17-.25l.23-.22c-.06-.03-.12-.08-.19-.15l-.15-.19c-.04-.07-.07-.14-.08-.21l-.04-.24c0-.12,0-.21.02-.28.01-.07.03-.14.07-.22h-.56v4.6h-.53v-6.7h.53v1.15Z"/>
      <path class="st1" d="M17.81,12.41h4.38v.99h-4.38v1.15h-.53v-1.34h-1.26c-.06,0-.12.01-.18.04s-.12.08-.19.15c-.05.06-.09.13-.11.19s-.04.16-.05.28v.95l.03.22.05.08.05.05s.08.08.16.1l.26.04h1.33v.91h-1.35c-.14,0-.27-.03-.4-.1-.13-.07-.24-.17-.35-.3-.1-.13-.19-.29-.25-.46s-.09-.36-.09-.56v-.94c0-.19.03-.37.09-.53.05-.16.12-.31.23-.44s.22-.23.36-.3.28-.11.42-.11h1.25v-1.22h.53v1.15Z"/>
    </g>
  </g>
  <g>
    <path class="st1" d="M32.43,36.25h-12.53c1.1-.36,2.56-.91,3.91-1.74.64-.39,1.2-.79,1.7-1.19,2.25-.04,4.67,0,6.92-.05v2.97h0Z"/>
    <path class="st1" d="M35.73,5.74h12.54v3.14l-6.94-.13v7.19l6.94-.13v3.14l-6.94-.13v14.43l6.94-.13v3.14h-12.54V5.74Z"/>
    <path class="st1" d="M56.22,8.71l-5.09.17v-3.14h15.78v3.14l-5.09-.17v27.55h-5.6s0-27.55,0-27.55Z"/>
    <path class="st1" d="M70.66,5.74h5.6v27.5l7.13-.13v3.14h-12.73s0-30.51,0-30.51Z"/>
    <g>
      <rect class="st1" x="87.14" y="5.74" width="4.71" height="3.7"/>
      <rect class="st1" x="87.14" y="11.51" width="4.71" height="24.75"/>
    </g>
    <g>
      <path class="st1" d="M23.75,9.03c1.5,1.08,2.04,1.86,2.45,3.77.41,1.89.42,5.06.43,8.46.01,4.92-.04,5.37-.24,7.52-.28,2.87-1.36,3.86-2.46,4.87-2.4,2.21-3.73,2.33-4.03,2.59-.03.03.34-.05.8-.09,1.4-.25,6.02-1.12,9-5.04,2.46-3.24,2.62-6.83,2.73-9.58.11-2.8-.58-6.05-2.01-9.15-1.65-3.55-4.1-5.13-5.41-5.8-1.35-.69-2.73-.81-3-.83-.37-.03-1.75-.1-1.88.85-.17,1.23,1.69,1.01,3.64,2.42h-.02Z"/>
      <path class="st1" d="M14.85,32.97c-1.5-1.08-2.04-1.86-2.45-3.77-.41-1.89-.42-5.06-.43-8.46-.01-4.92.04-5.37.24-7.52.28-2.87,1.36-3.86,2.46-4.87,2.4-2.21,3.73-2.33,4.03-2.59.03-.03-.34.05-.8.09-1.4.25-6.02,1.12-9,5.04-2.46,3.24-2.62,6.83-2.73,9.58-.11,2.8.58,6.05,2.01,9.15,1.65,3.55,4.1,5.13,5.41,5.8,1.35.69,2.73.81,3,.83.37.03,1.75.1,1.88-.85.17-1.23-1.69-1.01-3.64-2.42h.02Z"/>
    </g>
  </g>
</svg>