<?xml version="1.0" encoding="UTF-8"?>
<svg id="Layer_1" xmlns="http://www.w3.org/2000/svg" version="1.1" viewBox="0 0 98 42">
  <!-- Generator: Adobe Illustrator 29.2.1, SVG Export Plug-In . SVG Version: 2.1.0 Build 116)  -->
  <defs>
    <style>
      .st0 {
        font-family: DevLys-370, 'DevLys 370';
        font-size: 9.31px;
      }

      .st0, .st1 {
        fill: #4d240a;
      }
    </style>
  </defs>
  <text class="st0" transform="translate(22.52 30.59) rotate(-90)"><tspan x="0" y="0">dssssVyh</tspan></text>
  <g>
    <path class="st1" d="M32.42,36.25h-12.53c1.1-.36,2.56-.91,3.91-1.74.64-.39,1.2-.79,1.7-1.19,2.25-.04,4.67,0,6.92-.05v2.97Z"/>
    <path class="st1" d="M35.72,5.74h12.54v3.14l-6.94-.13v7.19l6.94-.13v3.14l-6.94-.13v14.43l6.94-.13v3.14h-12.54V5.74Z"/>
    <path class="st1" d="M56.21,8.71l-5.09.17v-3.14h15.78v3.14l-5.09-.17v27.55h-5.6V8.71Z"/>
    <path class="st1" d="M70.65,5.74h5.6v27.5l7.13-.13v3.14h-12.73V5.74Z"/>
    <g>
      <rect class="st1" x="87.13" y="5.74" width="4.71" height="3.7"/>
      <rect class="st1" x="87.13" y="11.51" width="4.71" height="24.75"/>
    </g>
    <g>
      <path class="st1" d="M23.74,9.03c1.5,1.08,2.04,1.86,2.45,3.77.41,1.89.42,5.06.43,8.46.01,4.92-.04,5.37-.24,7.52-.28,2.87-1.36,3.86-2.46,4.87-2.4,2.21-3.73,2.33-4.03,2.59-.03.03.34-.05.8-.09,1.4-.25,6.02-1.12,9-5.04,2.46-3.24,2.62-6.83,2.73-9.58.11-2.8-.58-6.05-2.01-9.15-1.65-3.55-4.1-5.13-5.41-5.8-1.35-.69-2.73-.81-3-.83-.37-.03-1.75-.1-1.88.85-.17,1.23,1.69,1.01,3.64,2.42Z"/>
      <path class="st1" d="M14.84,32.97c-1.5-1.08-2.04-1.86-2.45-3.77-.41-1.89-.42-5.06-.43-8.46-.01-4.92.04-5.37.24-7.52.28-2.87,1.36-3.86,2.46-4.87,2.4-2.21,3.73-2.33,4.03-2.59.03-.03-.34.05-.8.09-1.4.25-6.02,1.12-9,5.04-2.46,3.24-2.62,6.83-2.73,9.58-.11,2.8.58,6.05,2.01,9.15,1.65,3.55,4.1,5.13,5.41,5.8,1.35.69,2.73.81,3,.83.37.03,1.75.1,1.88-.85.17-1.23-1.69-1.01-3.64-2.42Z"/>
    </g>
  </g>
</svg>